<?xml version="1.0" encoding="iso-8859-1"?>
<!-- Uploaded to: SVG Repo, www.svgrepo.com, Generator: SVG Repo Mixer Tools -->
<svg fill="#000000" height="50px" width="50px" version="1.1" id="Layer_1" xmlns="http://www.w3.org/2000/svg" xmlns:xlink="http://www.w3.org/1999/xlink" 
	 viewBox="0 0 512 512" xml:space="preserve">
<g>
	<g>
		<path d="M411.589,351.958c5.559,0,10.066-4.506,10.066-10.066V10.066C421.655,4.506,417.149,0,411.589,0h-40.262
			c-5.559,0-10.066,4.506-10.066,10.066v11.072H150.738V10.066C150.738,4.506,146.232,0,140.673,0h-40.262
			c-5.559,0-10.065,4.506-10.065,10.066v331.827c0,5.559,4.506,10.066,10.065,10.066h30.197v99.649h-27.68
			c-5.559,0-10.066,4.506-10.066,10.065v40.262c0,5.559,4.506,10.065,10.066,10.065h115.753c5.559,0,10.066-4.506,10.066-10.065
			v-40.262c0-5.559-4.506-10.065-10.066-10.065H191V407.99H321v43.617h-27.68c-5.559,0-10.066,4.506-10.066,10.065v40.262
			c0,5.559,4.506,10.065,10.066,10.065h115.754c5.559,0,10.065-4.506,10.065-10.065v-40.262c0-5.559-4.506-10.065-10.065-10.065
			h-27.68v-99.649H411.589z M381.393,20.131h20.131v311.696h-20.131V20.131z M150.738,41.269h210.523V61.4H150.738V41.269z
			 M150.738,121.793h20.131v329.814h-20.131V121.793z M110.476,331.827V20.131h20.131v311.696H110.476z M208.615,471.738v20.131
			h-95.622v-20.131H208.615z M180.935,101.662h-30.197V81.531h210.523v20.131h-30.197c-5.559,0-10.066,4.506-10.066,10.065v34.558
			H191v-34.558C191,106.168,186.494,101.662,180.935,101.662z M361.262,121.793v329.814h-20.131V121.793H361.262z M191,287.203
			v-20.131H321v20.131H191z M321,307.334v40.262H191v-40.262H321z M191,246.941v-40.262H321v40.262H191z M191,186.547v-20.131H321
			v20.131H191z M191,387.858v-20.131H321v20.131H191z M399.007,471.738v20.131h-95.622v-20.131H399.007z"/>
	</g>
</g>
</svg>