<svg width="450" height="240" viewBox="0 0 450 240" fill="none" xmlns="http://www.w3.org/2000/svg">
<g filter="url(#filter0_b_2_71)">
<path fill-rule="evenodd" clip-rule="evenodd" d="M184 46.9562V201.625L173.308 205.528V41.6876L184 46.9562ZM162.615 36.419V209.43L151.923 213.333V31.1503L162.615 36.419ZM130.538 221.138L141.231 217.236V25.8817L130.538 20.6131V221.138ZM119.846 15.3444V225.041L109 229V10L119.846 15.3444Z" fill="url(#paint0_linear_2_71)"/>
</g>
<g filter="url(#filter1_b_2_71)">
<path d="M45 173.794L109 229V10L45 36.9188V173.794Z" fill="url(#paint1_linear_2_71)"/>
</g>
<path d="M208.55 120V66.75H232.1C234.55 66.75 236.8 67.25 238.85 68.25C240.95 69.25 242.75 70.6 244.25 72.3C245.8 74 246.975 75.9 247.775 78C248.625 80.1 249.05 82.25 249.05 84.45C249.05 86.7 248.65 88.875 247.85 90.975C247.1 93.025 246 94.825 244.55 96.375C243.1 97.925 241.4 99.125 239.45 99.975L251.6 120H240.2L229.25 102.15H218.9V120H208.55ZM218.9 93.075H231.875C233.175 93.075 234.325 92.7 235.325 91.95C236.325 91.15 237.125 90.1 237.725 88.8C238.325 87.5 238.625 86.05 238.625 84.45C238.625 82.75 238.275 81.275 237.575 80.025C236.875 78.725 235.975 77.7 234.875 76.95C233.825 76.2 232.675 75.825 231.425 75.825H218.9V93.075ZM284.153 66.75H294.653L314.228 120H303.578L298.628 106.725H280.028L275.153 120H264.503L284.153 66.75ZM296.753 99.45L289.403 77.475L281.753 99.45H296.753ZM362.384 80.7C362.034 80.35 361.384 79.875 360.434 79.275C359.534 78.675 358.409 78.1 357.059 77.55C355.759 77 354.334 76.525 352.784 76.125C351.234 75.675 349.659 75.45 348.059 75.45C345.259 75.45 343.134 75.975 341.684 77.025C340.284 78.075 339.584 79.55 339.584 81.45C339.584 82.9 340.034 84.05 340.934 84.9C341.834 85.75 343.184 86.475 344.984 87.075C346.784 87.675 349.034 88.325 351.734 89.025C355.234 89.875 358.259 90.925 360.809 92.175C363.409 93.375 365.384 94.975 366.734 96.975C368.134 98.925 368.834 101.525 368.834 104.775C368.834 107.625 368.309 110.075 367.259 112.125C366.209 114.125 364.759 115.75 362.909 117C361.059 118.25 358.959 119.175 356.609 119.775C354.259 120.325 351.759 120.6 349.109 120.6C346.459 120.6 343.809 120.325 341.159 119.775C338.509 119.225 335.959 118.45 333.509 117.45C331.059 116.4 328.809 115.15 326.759 113.7L331.334 104.775C331.784 105.225 332.584 105.825 333.734 106.575C334.884 107.275 336.284 108 337.934 108.75C339.584 109.45 341.384 110.05 343.334 110.55C345.284 111.05 347.259 111.3 349.259 111.3C352.059 111.3 354.184 110.825 355.634 109.875C357.084 108.925 357.809 107.575 357.809 105.825C357.809 104.225 357.234 102.975 356.084 102.075C354.934 101.175 353.334 100.4 351.284 99.75C349.234 99.05 346.809 98.3 344.009 97.5C340.659 96.55 337.859 95.5 335.609 94.35C333.359 93.15 331.684 91.65 330.584 89.85C329.484 88.05 328.934 85.8 328.934 83.1C328.934 79.45 329.784 76.4 331.484 73.95C333.234 71.45 335.584 69.575 338.534 68.325C341.484 67.025 344.759 66.375 348.359 66.375C350.859 66.375 353.209 66.65 355.409 67.2C357.659 67.75 359.759 68.475 361.709 69.375C363.659 70.275 365.409 71.25 366.959 72.3L362.384 80.7Z" fill="url(#paint2_linear_2_71)"/>
<path d="M203 129.375H371.084V133.125H203V129.375Z" fill="url(#paint3_linear_2_71)"/>
<path d="M225.59 151.755C225.23 151.335 224.75 150.93 224.15 150.54C223.55 150.15 222.875 149.805 222.125 149.505C221.375 149.175 220.55 148.92 219.65 148.74C218.78 148.53 217.865 148.425 216.905 148.425C214.445 148.425 212.63 148.89 211.46 149.82C210.29 150.75 209.705 152.025 209.705 153.645C209.705 154.785 210.005 155.685 210.605 156.345C211.205 157.005 212.12 157.545 213.35 157.965C214.61 158.385 216.2 158.82 218.12 159.27C220.34 159.75 222.26 160.335 223.88 161.025C225.5 161.715 226.745 162.645 227.615 163.815C228.485 164.955 228.92 166.485 228.92 168.405C228.92 169.935 228.62 171.27 228.02 172.41C227.45 173.52 226.64 174.45 225.59 175.2C224.54 175.92 223.31 176.46 221.9 176.82C220.49 177.15 218.96 177.315 217.31 177.315C215.69 177.315 214.1 177.15 212.54 176.82C211.01 176.46 209.555 175.95 208.175 175.29C206.795 174.63 205.505 173.805 204.305 172.815L206.24 169.395C206.72 169.905 207.335 170.415 208.085 170.925C208.865 171.405 209.735 171.855 210.695 172.275C211.685 172.695 212.75 173.04 213.89 173.31C215.03 173.55 216.2 173.67 217.4 173.67C219.68 173.67 221.45 173.265 222.71 172.455C223.97 171.615 224.6 170.4 224.6 168.81C224.6 167.61 224.24 166.65 223.52 165.93C222.83 165.21 221.795 164.61 220.415 164.13C219.035 163.65 217.355 163.17 215.375 162.69C213.215 162.15 211.4 161.565 209.93 160.935C208.46 160.275 207.35 159.42 206.6 158.37C205.88 157.32 205.52 155.955 205.52 154.275C205.52 152.235 206.015 150.51 207.005 149.1C207.995 147.69 209.36 146.625 211.1 145.905C212.84 145.185 214.805 144.825 216.995 144.825C218.435 144.825 219.77 144.975 221 145.275C222.26 145.575 223.43 145.995 224.51 146.535C225.59 147.075 226.58 147.72 227.48 148.47L225.59 151.755ZM250.102 145.05H253.522L266.572 177H262.252L258.472 167.64H245.062L241.327 177H237.007L250.102 145.05ZM257.572 164.49L251.812 149.73L245.872 164.49H257.572ZM277.586 177V145.05H298.691V148.65H281.636V159.315H295.991V162.69H281.636V177H277.586ZM332.261 173.4V177H310.571V145.05H331.856V148.65H314.621V159H329.606V162.375H314.621V173.4H332.261ZM367.607 148.65H356.582V177H352.532V148.65H341.507V145.05H367.607V148.65ZM380.174 145.05L389.849 161.7L399.614 145.05H404.024L391.874 165.345V177H387.824V165.255L375.719 145.05H380.174Z" fill="url(#paint4_linear_2_71)"/>
<path d="M203 182.625H404.609V184.875H203V182.625Z" fill="url(#paint5_linear_2_71)"/>
<defs>
<filter id="filter0_b_2_71" x="105" y="6" width="83" height="227" filterUnits="userSpaceOnUse" color-interpolation-filters="sRGB">
<feFlood flood-opacity="0" result="BackgroundImageFix"/>
<feGaussianBlur in="BackgroundImageFix" stdDeviation="2"/>
<feComposite in2="SourceAlpha" operator="in" result="effect1_backgroundBlur_2_71"/>
<feBlend mode="normal" in="SourceGraphic" in2="effect1_backgroundBlur_2_71" result="shape"/>
</filter>
<filter id="filter1_b_2_71" x="41" y="6" width="72" height="227" filterUnits="userSpaceOnUse" color-interpolation-filters="sRGB">
<feFlood flood-opacity="0" result="BackgroundImageFix"/>
<feGaussianBlur in="BackgroundImageFix" stdDeviation="2"/>
<feComposite in2="SourceAlpha" operator="in" result="effect1_backgroundBlur_2_71"/>
<feBlend mode="normal" in="SourceGraphic" in2="effect1_backgroundBlur_2_71" result="shape"/>
</filter>
<linearGradient id="paint0_linear_2_71" x1="146.5" y1="10" x2="146.5" y2="229" gradientUnits="userSpaceOnUse">
<stop stop-color="#FF6600"/>
<stop offset="1" stop-color="#FFA800"/>
</linearGradient>
<linearGradient id="paint1_linear_2_71" x1="77" y1="10" x2="77" y2="229" gradientUnits="userSpaceOnUse">
<stop stop-color="#FF6600"/>
<stop offset="1" stop-color="#FFA800"/>
</linearGradient>
<linearGradient id="paint2_linear_2_71" x1="287.5" y1="50" x2="287.5" y2="122" gradientUnits="userSpaceOnUse">
<stop stop-color="#FF6600"/>
<stop offset="1" stop-color="#FFA800"/>
</linearGradient>
<linearGradient id="paint3_linear_2_71" x1="287.5" y1="50" x2="287.5" y2="122" gradientUnits="userSpaceOnUse">
<stop stop-color="#FF6600"/>
<stop offset="1" stop-color="#FFA800"/>
</linearGradient>
<linearGradient id="paint4_linear_2_71" x1="304" y1="135" x2="304" y2="181" gradientUnits="userSpaceOnUse">
<stop stop-color="#FF6600"/>
<stop offset="1" stop-color="#FFA800"/>
</linearGradient>
<linearGradient id="paint5_linear_2_71" x1="304" y1="135" x2="304" y2="181" gradientUnits="userSpaceOnUse">
<stop stop-color="#FF6600"/>
<stop offset="1" stop-color="#FFA800"/>
</linearGradient>
</defs>
</svg>
